<svg width="241" height="142" viewBox="0 0 241 142" fill="none" xmlns="http://www.w3.org/2000/svg">
<g clip-path="url(#clip0_128_94)">
<path d="M166.602 91.4114C167.514 91.9158 168.251 92.2521 168.911 92.7005C170.174 93.5622 170.342 94.613 169.093 95.4327C166.419 97.1982 166.468 99.405 167.514 102.018C168.075 103.426 168.475 104.912 168.763 106.404C169.163 108.484 168.363 110.124 166.377 110.866C164.707 111.49 162.889 111.945 161.121 112.008C157.787 112.12 154.446 111.889 151.113 111.812C150.439 111.798 149.765 111.833 149.092 111.868C145.912 112.029 143.674 113.62 142.958 116.681C142.221 119.841 141.954 123.105 141.435 126.314C141.105 128.339 140.838 130.391 140.291 132.36C139.238 136.129 136.628 138.35 132.81 139.093C128.873 139.863 125.49 138.875 122.872 135.716C122.535 135.31 122.233 134.868 121.833 134.343C121.539 134.756 121.286 135.12 121.026 135.485C118.928 138.406 116.149 140.424 112.745 141.531C109.061 142.729 105.72 141.566 103.474 138.406C102.155 136.55 101.432 134.448 100.913 132.262C100.821 131.884 100.751 131.498 100.674 131.113C99.902 127.26 98.4142 125.978 94.4911 125.964C92.3295 125.957 90.161 126.202 87.9994 126.153C86.5607 126.125 85.0799 125.943 83.7043 125.537C81.627 124.92 80.9041 123.533 81.3884 121.417C81.6761 120.177 82.1253 118.979 82.5183 117.767C82.9534 116.422 82.7639 115.315 81.5568 114.376C79.9848 113.15 80.1111 112.373 81.8937 111.413C82.0691 111.322 82.2376 111.217 82.5464 111.035C81.8797 110.88 81.3603 110.789 80.862 110.642C80.0971 110.411 79.8865 109.935 80.1883 109.171C81.3814 106.173 81.0656 105.619 77.9144 105.038C74.8756 104.477 74.4616 103.545 76.2371 100.988C77.5706 99.0687 78.9952 97.2052 80.3918 95.3276C82.1042 93.0157 82.8903 90.4516 82.792 87.5652C82.6165 82.2478 84.0482 77.2597 86.0905 72.4117C87.9783 67.935 91.354 64.9926 95.7894 63.2202C102.92 60.3758 110.261 59.1498 117.903 60.621C118.563 60.7471 118.83 60.565 118.956 59.9835C119.174 58.9817 119.412 57.9798 119.602 56.971C120.058 54.6101 121.153 53.5662 123.518 53.1038C123.953 53.0198 124.318 52.5854 124.739 52.3542C125.335 52.0319 125.946 51.5485 126.578 51.4995C127.876 51.3874 129.202 51.5485 130.515 51.5135C131.167 51.4925 132.059 51.7377 132.227 50.7779C132.248 50.6658 131.139 50.1754 130.55 50.1614C128.529 50.1264 126.5 50.2525 124.479 50.2735C123.735 50.2805 122.963 50.2875 122.262 50.0843C121.833 49.9582 121.237 49.4538 121.216 49.0895C121.195 48.6552 121.602 47.9686 122.002 47.7864C122.683 47.4712 123.504 47.3661 124.269 47.3521C126.472 47.3171 128.676 47.3941 130.873 47.3661C131.546 47.3591 132.22 47.1559 132.894 47.0438C132.922 46.8827 132.943 46.7146 132.971 46.5534C132.473 46.3433 131.982 45.993 131.469 45.9579C130.304 45.8809 129.132 45.9579 127.96 45.986C126.325 46.021 124.697 46.1121 123.062 46.0981C122.437 46.0981 121.763 45.9649 121.216 45.6847C120.809 45.4745 120.339 44.9421 120.325 44.5358C120.311 44.1294 120.746 43.4919 121.132 43.3378C122.009 42.9945 122.97 42.7563 123.904 42.7213C126.171 42.6232 128.451 42.6792 130.725 42.6512C131.287 42.6512 131.848 42.5601 132.466 42.427C130.066 41.6634 129.645 39.8349 129.694 37.6981C129.785 33.838 129.834 29.9708 129.897 26.1036C129.897 25.7183 129.897 25.3329 129.897 24.7865H122.907C123.139 27.3576 123.37 29.8517 123.581 32.3527C123.791 34.8258 124.037 37.2988 124.149 39.7718C124.234 41.5303 123.883 41.7895 122.1 41.7685C120.191 41.7475 119.272 41.1099 118.823 39.2394C118.507 37.9013 118.331 36.5212 118.226 35.148C118.051 32.9132 117.314 30.9376 115.854 29.2352C115.482 28.8078 115.159 28.3384 114.822 27.883C113.847 26.573 113.84 26.559 112.303 27.2315C103.762 30.9796 98.9827 37.6421 97.2773 46.6445C96.9615 48.3119 96.8772 50.0213 96.6597 51.7097C96.5755 52.3612 96.8351 52.6064 97.4387 52.8446C98.4844 53.2509 99.516 53.7484 100.463 54.3509C101.327 54.8973 101.579 55.8151 101.242 56.7959C100.913 57.7557 100.106 58.113 99.1581 58.176C97.4878 58.2951 96.1263 57.1392 95.9789 55.4227C95.9158 54.6871 95.9649 53.9445 95.9649 53.1809C93.4314 52.5574 91.0242 52.8656 88.624 53.0198C80.0199 53.5592 71.7386 55.703 63.5064 58.0639C55.0356 60.4949 46.5297 62.7298 37.7571 63.8367C28.2687 65.0276 18.7663 65.0697 9.2498 64.278C6.52679 64.0538 3.80379 63.7386 1.0878 63.4443C0.722861 63.4023 0.36494 63.2412 0.00701904 63.1291C0.0210552 63.01 0.0421093 62.8979 0.0561454 62.7788C0.547409 62.7788 1.03867 62.7298 1.5159 62.7858C10.2043 63.8297 18.9207 64.3481 27.6722 63.9838C37.8414 63.5564 47.7509 61.6579 57.5551 59.0027C64.7837 57.0481 72.0193 55.0584 79.3391 53.5382C83.7956 52.6134 88.4275 52.5223 92.9892 52.116C93.9226 52.0319 94.8771 52.2211 95.9017 52.2912C96.1544 46.5534 97.3615 41.138 100.442 36.269C103.558 31.3579 107.959 28.0372 113.314 26.0195C112.591 24.1139 111.798 22.2994 111.222 20.4219C110.366 17.6406 110.162 14.7823 110.675 11.9029C111.447 7.60834 113.721 4.37168 117.644 2.41707C122.788 -0.147046 128.136 -0.882652 133.624 1.15603C140.01 3.53098 143.695 8.91842 143.772 15.721C143.814 19.5532 143.316 21.739 141.477 25.7463C143.61 26.4959 145.765 27.1755 147.87 27.9951C152.741 29.8937 156.847 32.8361 159.991 37.0466C160.201 37.3268 160.671 37.579 161.022 37.579C170.426 37.502 179.62 39.1834 188.807 40.8858C199.902 42.9385 211.054 44.5218 222.367 44.0314C228.248 43.7721 234.108 43.0576 239.982 42.5531C240.291 42.5251 240.614 42.5531 240.923 42.5531C240.944 42.6722 240.972 42.7983 240.993 42.9174C240.677 43.0365 240.368 43.2257 240.039 43.2747C226.599 45.2434 213.138 45.4465 199.692 43.3798C192.182 42.2239 184.722 40.7386 177.199 39.6668C172.356 38.9732 167.451 38.756 162.566 38.3357C162.075 38.2936 161.584 38.3357 160.931 38.3357C161.198 38.791 161.38 39.1063 161.57 39.4286C165.163 45.5026 166.974 52.067 166.721 59.1148C166.574 63.3463 167.717 67.0803 170.237 70.4431C171.17 71.6901 172.09 72.9582 173.016 74.2122C173.879 75.3822 174.757 76.5381 175.62 77.7151C175.894 78.0864 176.139 78.4787 176.364 78.8781C177.718 81.274 177.255 82.3249 174.567 82.9624C173.493 83.2146 172.406 83.3828 171.353 83.691C169.732 84.1674 169.177 85.0782 169.5 86.7455C169.64 87.4671 169.928 88.1677 170.209 88.8473C170.714 90.0593 170.476 90.6127 169.205 90.956C168.798 91.0681 168.37 91.1171 167.949 91.1872C167.577 91.2503 167.198 91.3063 166.609 91.3974L166.602 91.4114ZM125.406 86.3392H123.742C124.353 88.4059 123.946 89.4918 121.925 90.2344C120.275 90.8369 118.493 91.0611 116.787 91.5025C116.317 91.6216 115.84 91.8598 115.475 92.168C114.429 93.0648 113.51 94.1226 112.401 94.9213C111.882 95.2996 110.948 95.4747 110.352 95.2856C109.496 95.0124 109.489 94.0035 109.65 93.2539C110.001 91.5935 110.415 89.9402 110.948 88.3359C111.236 87.4601 111.208 86.8506 110.387 86.3742C109.433 86.7455 108.492 87.1729 107.517 87.4811C105.081 88.2518 104.036 87.8314 102.765 85.6386C102.436 85.7017 102.092 85.8208 101.748 85.8138C100.127 85.7998 98.4774 85.9049 96.8843 85.6737C95.4877 85.4705 94.6174 84.5037 94.7087 83.677C94.856 82.3739 95.9719 82.0727 96.9615 81.9466C98.7511 81.7224 100.569 81.7294 102.365 81.5823C102.709 81.5543 103.25 81.3301 103.306 81.0989C103.397 80.7556 103.215 80.2722 102.997 79.9429C102.372 79.0112 101.6 78.1705 101.025 77.2107C100.744 76.7343 100.527 76.5942 99.9933 76.6012C98.8283 76.6082 97.6422 76.6082 96.4983 76.419C94.6315 76.1108 92.9892 75.3121 92.3576 73.3645C91.712 71.3749 92.6454 69.7846 93.9226 68.3414C94.063 68.1803 94.2034 68.0051 94.3788 67.9C95.9859 66.9542 97.5229 65.8123 99.2423 65.1257C102.765 63.7106 106.499 63.5915 110.261 63.7246C111.917 63.7806 113.594 63.7316 115.243 63.5354C116.479 63.3813 117.545 62.7368 118.205 61.4687C117.77 61.3706 117.426 61.2726 117.082 61.2165C109.826 60.0465 102.878 61.2165 96.1123 63.8927C91.1084 65.8683 87.7889 69.4343 86.0063 74.4644C84.4553 78.836 83.2973 83.2777 83.4868 87.9715C83.5991 90.6548 82.8622 93.0928 81.3112 95.2716C80.1813 96.8619 79.0022 98.4172 77.8653 100C77.2898 100.806 76.6933 101.612 76.2161 102.474C75.6827 103.433 75.8652 103.805 76.9179 104.092C77.739 104.323 78.5882 104.442 79.4093 104.645C81.2129 105.108 81.9007 106.271 81.4094 108.085C81.255 108.66 81.0094 109.206 80.7427 109.921C81.641 110.089 82.4692 110.208 83.2762 110.404C83.5149 110.46 83.7114 110.705 83.9289 110.859C83.7745 111.07 83.6622 111.357 83.4517 111.483C83.0025 111.763 82.4902 111.945 82.027 112.205C81.0375 112.751 80.9673 113.08 81.8586 113.711C83.578 114.93 83.7324 116.485 83.1078 118.314C82.7008 119.519 82.3007 120.738 82.027 121.978C81.7533 123.253 82.2165 124.107 83.4026 124.661C84.0061 124.941 84.6728 125.214 85.3185 125.249C87.1923 125.361 89.0732 125.368 90.947 125.389C92.8278 125.41 94.7157 125.298 96.5825 125.445C98.6528 125.614 100.028 126.868 100.73 128.794C101.067 129.719 101.2 130.721 101.523 131.653C102.197 133.579 102.723 135.611 103.706 137.376C105.671 140.907 108.99 142.077 112.801 140.753C116.191 139.576 118.886 137.453 120.872 134.441C121.265 133.845 121.293 133.404 120.97 132.717C118.128 126.608 116.893 120.205 117.735 113.48C117.959 111.665 118.507 109.928 119.875 108.597C121.244 107.265 123.062 107.378 124.051 108.996C124.683 110.026 125.174 111.245 125.342 112.436C126.339 119.47 125.546 126.286 122.626 132.816C122.458 133.187 122.43 133.81 122.626 134.133C124.711 137.446 127.729 138.988 131.638 138.546C135.694 138.084 138.55 135.996 139.631 131.968C140.165 129.992 140.424 127.946 140.726 125.915C141.133 123.183 141.302 120.408 141.856 117.711C142.754 113.332 144.958 111.518 149.393 111.112C149.885 111.063 150.39 111.042 150.881 111.063C153.541 111.161 156.201 111.322 158.868 111.378C161.324 111.427 163.787 111.343 166.061 110.243C167.661 109.472 168.321 108.477 168.033 106.747C167.774 105.15 167.317 103.566 166.742 102.053C165.675 99.2298 165.71 96.8128 168.532 94.9773C169.423 94.3959 169.346 93.8494 168.419 93.2679C167.675 92.7985 166.826 92.4833 166.061 92.0419C165.788 91.8878 165.626 91.5515 165.409 91.2993C165.675 91.1101 165.928 90.8159 166.223 90.7528C167.156 90.5427 168.111 90.4376 169.051 90.2554C169.676 90.1363 169.837 89.8281 169.556 89.1906C169.205 88.3849 168.882 87.5442 168.728 86.6825C168.412 84.882 169.191 83.635 170.932 83.0815C171.809 82.8013 172.721 82.6472 173.627 82.465C176.764 81.8415 177.087 81.1619 175.241 78.4997C173.725 76.3139 172.139 74.1772 170.483 72.0895C167.254 68.0331 165.795 63.5284 165.97 58.2811C166.195 51.4995 164.223 45.2013 160.692 39.3865C160.229 38.6159 159.724 38.3567 158.819 38.3847C151.534 38.6509 144.418 39.926 137.428 41.9156C133.834 42.9385 130.234 43.7441 126.458 43.3798C125.686 43.3028 124.893 43.3448 124.114 43.4148C123.307 43.4919 122.493 43.625 121.714 43.8352C121.426 43.9123 121.216 44.2766 120.97 44.5077C121.223 44.7319 121.447 45.0962 121.728 45.1453C122.626 45.3134 123.553 45.4605 124.465 45.4465C126.451 45.4115 128.437 45.2363 130.424 45.2083C131.189 45.1943 132.01 45.2924 132.697 45.5936C133.111 45.7758 133.49 46.4273 133.533 46.8967C133.561 47.191 132.978 47.6323 132.578 47.8495C132.227 48.0387 131.757 48.0667 131.336 48.0667C129.062 48.0737 126.788 48.0316 124.514 48.0667C123.813 48.0737 123.104 48.2068 122.423 48.3679C122.205 48.417 122.051 48.7392 121.869 48.9354C122.072 49.1035 122.248 49.3838 122.472 49.4258C123.027 49.5309 123.602 49.5729 124.163 49.5659C125.764 49.5379 127.357 49.4538 128.957 49.4398C129.841 49.4258 130.732 49.4468 131.61 49.5519C132.339 49.643 133.055 49.9232 133.02 50.841C132.992 51.7027 132.354 52.06 131.596 52.1651C130.964 52.2491 130.325 52.2281 129.687 52.2351C128.55 52.2491 127.42 52.2141 126.29 52.2631C125.974 52.2771 125.665 52.5223 125.357 52.6625C125.385 52.7465 125.413 52.8306 125.441 52.9147C126.213 52.8516 126.978 52.7535 127.75 52.7325C128.95 52.6975 129.434 53.4121 129.006 54.533C128.416 56.0603 126.564 56.4035 125.349 55.1705C124.964 54.7782 124.704 54.2598 124.388 53.8044C122.072 53.8534 120.851 54.7081 120.381 56.6908C120.044 58.0919 119.791 59.5071 119.496 60.9153C119.56 60.9503 119.616 60.9993 119.679 61.0203C119.946 61.1114 120.219 61.1885 120.493 61.2796C124.465 62.5616 127.946 64.6003 130.613 67.858C136.852 75.4943 136.368 87.9015 129.546 95.0684C129.013 95.6289 128.402 96.1403 127.75 96.5536C125.595 97.9198 123.89 97.072 123.911 94.5079C123.925 92.7915 124.332 91.0751 124.627 89.3727C124.802 88.3709 125.111 87.3971 125.385 86.3112L125.406 86.3392ZM130.894 23.9948C133.841 24.4923 136.817 24.9546 139.772 25.5221C140.487 25.6622 140.796 25.4731 141.091 24.8916C142.179 22.7408 142.761 20.4639 143 18.075C143.814 9.99731 139.547 3.41189 131.939 1.38722C126.276 -0.119023 120.956 0.987889 116.107 4.24557C114.584 5.26842 113.391 6.64855 112.619 8.32293C109.812 14.4109 111.257 20.1066 114.078 25.6062C116.872 25.0317 119.489 24.4993 122.1 23.9598C122.1 23.3083 122.044 22.6708 122.107 22.0402C122.283 20.2888 122.388 18.5093 122.753 16.7929C123.012 15.5459 123.49 15.4338 124.725 15.8331C124.844 15.8752 124.992 15.8681 125.125 15.8541C125.799 15.7981 126.472 15.728 127.293 15.651C127.279 15.679 127.357 15.5319 127.441 15.3777C127.785 14.7192 128.283 14.0256 129.055 14.2848C129.631 14.481 130.241 15.0835 130.459 15.658C130.781 16.4917 130.845 17.4515 130.873 18.3692C130.929 20.2397 130.887 22.1173 130.887 23.9948H130.894ZM122.037 71.1157C122.17 70.5972 122.269 70.0788 122.423 69.5884C122.851 68.2433 123.609 67.6758 124.711 67.844C125.911 68.0331 126.606 68.9088 126.465 70.331C126.367 71.3048 125.981 72.2436 125.813 73.2174C125.735 73.6518 125.813 74.1422 125.925 74.5765C126.15 75.4242 126.62 76.2299 126.69 77.0846C126.753 77.8552 127.069 78.2405 127.63 78.7029C129.041 79.8729 130.508 81.0288 131.687 82.423C132.929 83.8872 132.389 85.2883 130.515 85.7928C129.329 86.115 128.058 86.115 126.844 86.3392C126.529 86.3953 126.114 86.7105 126.023 86.9977C125.637 88.2097 125.258 89.4428 125.062 90.6968C124.837 92.154 124.648 93.6462 124.725 95.1104C124.795 96.4696 125.728 96.9249 126.9 96.2103C127.911 95.5938 128.88 94.8022 129.631 93.8914C137.315 84.6718 136.389 67.1644 120.458 62.0292C119.517 61.7279 118.844 61.6509 118.261 62.6247C117.988 63.073 117.433 63.4023 116.942 63.6685C115.356 64.5162 113.615 64.5793 111.861 64.5372C109.945 64.4882 108.022 64.3761 106.113 64.4672C102.927 64.6073 99.8389 65.2799 97.0246 66.8562C95.3262 67.8089 93.8454 69.0139 93.1226 70.9125C92.5822 72.3207 92.884 73.6868 94.0139 74.5695C95.9509 76.0758 98.1896 76.0407 100.26 75.8586C100.562 74.6396 100.835 73.6307 101.053 72.6149C101.165 72.1035 101.327 71.529 101.2 71.0456C100.428 67.9981 101.846 65.7983 104.997 65.7282C106.836 65.6862 108.738 66.0505 110.52 66.5339C111.664 66.8421 112.577 67.1924 113.608 66.3167C114.008 65.9804 114.647 65.8473 115.194 65.7703C116.654 65.5531 117.679 66.3167 117.952 67.7669C118.037 68.2153 117.995 68.6917 118.086 69.14C118.142 69.4063 118.296 69.7776 118.5 69.8616C119.644 70.317 120.816 70.7023 122.037 71.1297V71.1157ZM159.352 37.6701C159.254 37.3969 159.24 37.3198 159.205 37.2638C154.713 31.3159 148.376 28.4435 141.393 26.65C141.189 26.601 140.838 26.7411 140.698 26.9092C139.456 28.4085 138.157 29.8727 137.07 31.484C136.459 32.3878 135.996 33.5227 135.87 34.5946C135.603 36.8925 135.603 39.2254 135.484 41.6914C143.239 39.4636 151.141 37.8733 159.345 37.6631L159.352 37.6701ZM121.798 132.773C122.065 132.241 122.255 131.912 122.395 131.561C124.746 125.908 125.399 120.002 124.851 113.963C124.725 112.548 124.304 111.098 123.7 109.809C122.865 108.015 121.139 107.917 120.03 109.57C119.356 110.572 118.879 111.77 118.598 112.954C117.861 116.03 118.121 119.147 118.584 122.244C119.124 125.824 120.023 129.306 121.798 132.78V132.773ZM130.494 24.7024C130.494 29.7256 130.445 34.5035 130.522 39.2744C130.55 40.7597 131.624 41.5093 133.252 41.7335C134.213 41.8596 134.684 41.5023 134.761 40.5985C134.873 39.2254 135.034 37.8453 134.985 36.4721C134.894 33.8029 135.75 31.5611 137.561 29.6135C138.473 28.6327 139.273 27.5538 140.34 26.2437C136.971 25.7183 133.883 25.2349 130.494 24.7094V24.7024ZM114.521 26.2437C114.991 26.9022 115.222 27.3086 115.531 27.6449C117.861 30.1879 119.026 33.1584 119.082 36.6122C119.096 37.6491 119.398 38.714 119.742 39.7088C120.149 40.8858 121.483 41.4182 122.865 41.0119C123.904 40.7036 123.279 39.7508 123.448 39.1063C123.483 38.9732 123.448 38.8261 123.434 38.686C123.02 34.1742 122.612 29.6555 122.191 25.1438C122.184 25.0527 122.093 24.9686 121.953 24.7305C119.567 25.2139 117.152 25.7113 114.514 26.2437H114.521ZM117.237 70.3731C116.114 69.9457 115.173 69.5744 114.507 70.9475C114.268 71.4379 113.671 71.8303 113.152 72.1035C111.391 73.0142 109.643 73.967 107.797 74.6746C106.295 75.2561 106.134 76.6712 105.425 77.7571C105.362 77.8482 105.474 78.1004 105.566 78.2405C106.267 79.3334 106.99 80.4193 107.783 81.6313C109.054 80.0831 110.134 78.5908 111.412 77.2737C112.38 76.2719 113.468 75.144 114.724 74.7306C116.296 74.2122 116.809 73.3015 116.977 71.8863C117.033 71.4029 117.145 70.9195 117.244 70.3661L117.237 70.3731ZM130.073 23.9668C130.073 21.5428 130.08 19.2169 130.059 16.891C130.059 16.5477 129.974 16.1624 129.806 15.8681C129.609 15.5249 129.223 14.9924 129.006 15.0345C128.641 15.0975 128.206 15.4968 128.072 15.8541C127.939 16.2044 128.129 16.6878 128.22 17.1012C128.43 18.082 128.718 19.0418 128.844 20.0296C128.873 20.2678 128.416 20.569 128.185 20.8422C127.932 20.6251 127.525 20.4429 127.462 20.1767C127.237 19.2239 127.076 18.2501 127.006 17.2693C126.95 16.5547 126.55 16.3235 125.974 16.3515C125.364 16.3796 125.195 16.7439 125.3 17.3884C125.441 18.2501 125.462 19.1398 125.427 20.0156C125.413 20.2818 125.076 20.7232 124.851 20.7512C124.606 20.7792 124.206 20.4779 124.051 20.2187C123.497 19.2519 123.63 18.2571 124.044 17.2623C124.163 16.9751 124.156 16.6318 124.206 16.3165C124.079 16.2955 123.946 16.2815 123.82 16.2605C122.514 18.6775 122.858 21.3046 122.865 23.9668H130.066H130.073ZM114.008 82.1778C114.85 82.5771 115.524 82.493 116.275 82.0587C117.679 81.239 119.117 80.4684 120.591 79.7888C122.269 79.0112 122.248 79.0602 122.191 77.2317C122.163 76.398 121.869 75.9216 121.068 75.7044C120.423 75.5293 119.798 75.2491 119.153 75.0879C117.061 74.5695 117.082 74.5975 116.303 76.5942C115.573 78.4647 114.78 80.3072 114.015 82.1708L114.008 82.1778ZM111.468 67.7179C109.573 66.5899 106.26 66.0365 104.309 66.5059C101.909 67.0873 101.067 68.8808 102.155 71.1927C104.281 69.6024 106.752 69.049 109.313 68.9229C110.317 68.8738 110.977 68.5305 111.468 67.7179ZM126.564 85.7087C127.841 85.4845 129.28 85.3374 130.655 84.9521C131.687 84.6648 131.876 83.9502 131.28 83.0465C130.115 81.267 128.409 80.0831 126.55 78.85C126.353 79.5927 126.044 80.2022 126.072 80.7976C126.15 82.3319 126.367 83.8592 126.571 85.7157L126.564 85.7087ZM108.422 81.9256C110.05 82.0307 111.384 82.1427 112.717 82.1848C112.942 82.1848 113.292 81.9326 113.391 81.7084C114.128 80.027 114.829 78.3316 115.524 76.6362C115.728 76.1458 115.875 75.6274 116.114 74.9198C112.317 76.0758 110.913 79.3685 108.422 81.9326V81.9256ZM103.846 75.3401C104.773 74.9758 105.881 74.8778 106.408 74.2683C107.615 72.8811 108.541 71.2418 109.601 69.6865C107.65 69.6375 105.285 70.1909 103.748 71.0386C102.225 71.8793 102.197 71.9424 102.955 73.5467C103.208 74.0861 103.488 74.6115 103.853 75.3331L103.846 75.3401ZM118.619 85.7928C116.963 85.4565 115.51 85.1342 114.05 84.882C113.685 84.819 113.026 84.868 112.949 85.0431C112.647 85.7858 112.106 86.8927 112.415 87.334C113.271 88.567 114.514 89.5408 115.763 90.7739C116.794 88.9664 117.679 87.4181 118.612 85.7858L118.619 85.7928ZM103.018 82.0867C100.786 82.3109 98.6879 82.479 96.6106 82.7733C96.1754 82.8363 95.8105 83.3688 95.4105 83.684C95.7614 84.0553 96.0421 84.5878 96.4702 84.7629C98.5475 85.6176 100.653 85.3654 102.737 84.847C102.822 83.9783 102.899 83.2427 103.011 82.0937L103.018 82.0867ZM111.699 87.9295C111.215 89.765 110.724 91.4184 110.366 93.0998C110.268 93.5832 110.562 94.1436 110.675 94.6761C111.194 94.529 111.819 94.5149 112.205 94.2067C113.307 93.31 114.303 92.2941 115.328 91.3343C114.057 90.1503 112.984 89.1415 111.692 87.9295H111.699ZM121.995 75.144C121.995 74.2542 122.023 73.3715 121.974 72.4958C121.96 72.2646 121.777 71.9353 121.588 71.8513C120.444 71.3469 119.265 70.8985 118.037 70.4081C117.735 71.7322 117.475 72.8601 117.23 73.939C118.816 74.3453 120.346 74.7306 121.995 75.151V75.144ZM103.685 85.4775C103.98 86.6685 104.639 87.278 105.839 87.0538C107.201 86.8016 108.513 86.3042 110.043 85.8558C109.138 84.6648 108.422 83.7261 107.762 82.8643C106.352 83.7681 105.025 84.6158 103.685 85.4775ZM114.549 69.7916C113.531 69.7005 112.801 69.6094 112.071 69.5814C111.622 69.5674 110.969 69.4693 110.759 69.7145C109.657 70.9896 108.661 72.3627 107.629 73.7008C107.713 73.7779 107.804 73.8479 107.889 73.925C110.176 72.8531 112.668 72.1105 114.549 69.7916ZM96.6597 53.1739C96.6597 54.1407 96.5965 54.7782 96.6737 55.4017C96.8141 56.5927 97.6422 57.3844 98.7581 57.4474C99.495 57.4894 100.204 57.3773 100.534 56.5857C100.878 55.773 100.463 55.1565 99.8389 54.7782C98.8844 54.2037 97.8527 53.7624 96.6597 53.1739ZM116.745 90.6688C119.658 90.907 123.286 89.2746 123.153 87.7754C121.995 89.0294 120.942 89.5128 120.289 88.9383C119.117 87.9155 120.289 86.9767 120.647 85.7227C120.009 85.9259 119.342 85.9329 119.153 86.2341C118.275 87.6703 117.531 89.1836 116.738 90.6618L116.745 90.6688ZM125.111 73.3575C125.371 72.1385 125.651 71.1297 125.778 70.1068C125.876 69.3222 125.455 68.7547 124.634 68.5796C123.77 68.3974 123.427 68.9649 123.167 69.6304C122.577 71.1577 122.662 71.4519 123.939 72.4327C124.248 72.6639 124.542 72.9091 125.111 73.3645V73.3575ZM117.307 69.4203C117.321 68.4395 117.566 67.3045 116.486 66.716C115.222 66.0225 114.128 66.7441 113.054 67.4727C114.282 68.5586 115.461 69.6024 117.307 69.4203ZM120.191 83.67C120.844 84.0133 121.335 84.2795 121.883 84.5667C123.525 83.2427 122.297 81.6523 122.219 80.1391C121.56 81.288 120.9 82.437 120.184 83.67H120.191ZM123.806 85.4705C124.121 85.4915 124.507 85.5756 124.879 85.5195C125.132 85.4845 125.546 85.2603 125.553 85.1062C125.609 83.9502 125.581 82.7873 125.581 81.6243C125.483 81.6103 125.378 81.5963 125.279 81.5823C124.725 82.8363 122.984 83.5649 123.799 85.4775L123.806 85.4705ZM101.664 76.2719C101.579 76.4331 101.495 76.6012 101.404 76.7623C102.127 77.7151 102.857 78.6749 103.636 79.7047C104.597 78.0444 104.667 77.638 103.594 76.5381C103.236 76.1738 102.316 76.349 101.657 76.2719H101.664ZM119.51 83.4038C120.058 82.423 120.591 81.4772 121.118 80.5314C121.047 80.4754 120.984 80.4123 120.914 80.3563C119.553 81.0709 118.198 81.7925 116.598 82.6332C117.749 82.9414 118.598 83.1656 119.517 83.4038H119.51ZM114.24 84.2305C115.742 84.4897 117.019 84.7489 118.317 84.896C118.577 84.924 118.886 84.5317 119.167 84.3356C119.11 84.2305 119.047 84.1254 118.991 84.0203C117.489 83.8241 115.994 82.6051 114.247 84.2305H114.24ZM123.532 76.1388C124.935 73.988 124.802 73.4696 122.612 72.6079C122.977 73.8129 122.107 75.179 123.532 76.1388ZM125.469 79.5997C126.164 78.3316 126.086 78.2055 123.876 77.2107C123.588 77.7711 123.3 78.3386 123.034 78.8641C123.932 79.1373 124.69 79.3685 125.469 79.5997ZM128.339 53.4541C127.336 53.5172 126.36 53.5802 125.293 53.6503C125.707 54.7642 126.353 55.3457 127.343 55.1705C128.101 55.0374 128.494 54.4489 128.339 53.4471V53.4541ZM103.678 84.6158C104.681 83.9853 105.601 83.4038 106.513 82.8293C103.53 82.2689 103.39 82.3669 103.678 84.6158ZM121.146 88.6651C121.693 88.0836 122.184 87.6143 122.591 87.0888C122.725 86.9207 122.76 86.4583 122.641 86.3532C122.437 86.1781 121.897 86.0239 121.819 86.122C121.342 86.7175 120.942 87.3761 120.563 88.0416C120.535 88.0977 120.837 88.3359 121.146 88.6651ZM123.448 82.8433C123.89 82.2618 124.22 81.9396 124.423 81.5473C124.62 81.1549 124.921 80.4544 124.774 80.3213C124.402 79.978 123.813 79.8729 123.118 79.5997C123.244 80.8187 123.335 81.6874 123.455 82.8433H123.448ZM101.881 73.0142C101.755 73.0142 101.628 73.0142 101.502 73.0142C101.404 73.897 101.306 74.7727 101.193 75.8095C101.972 75.6414 102.464 75.5363 103.032 75.4102C102.604 74.5275 102.246 73.7709 101.881 73.0142ZM124.283 76.4961C124.886 76.8464 125.392 77.1336 125.89 77.4209C125.974 77.3718 126.058 77.3228 126.143 77.2667C125.876 76.4611 125.609 75.6554 125.349 74.8497C125.258 74.8638 125.167 74.8848 125.076 74.8988C124.83 75.3962 124.585 75.8866 124.283 76.4891V76.4961ZM109.411 83.4458C109.355 83.4949 109.299 83.5439 109.243 83.5929C109.685 84.1604 110.127 84.7349 110.612 85.3584C111.138 85.0642 111.608 84.8049 112.282 84.4266C111.166 84.0483 110.289 83.7471 109.411 83.4458ZM104.948 78.7029C104.73 79.3264 104.597 79.7047 104.443 80.1461C105.159 80.5665 105.804 80.9448 106.45 81.3301C106.492 81.274 106.534 81.218 106.583 81.1619C106.085 80.4123 105.587 79.6627 104.948 78.7029ZM112.787 82.9344C111.952 82.8713 111.138 82.8083 110.331 82.7523C112.247 83.7891 112.471 83.7961 112.787 82.9344ZM104.878 77.1406C105.208 76.5101 105.432 76.0828 105.776 75.4312C105.074 75.6624 104.667 75.7955 104.204 75.9497C104.443 76.37 104.611 76.6642 104.878 77.1406Z" fill="#A58D69"/>
</g>
<defs>
<clipPath id="clip0_128_94">
<rect width="241" height="142" fill="white"/>
</clipPath>
</defs>
</svg>
