<svg width="126" height="142" viewBox="0 0 126 142" fill="none" xmlns="http://www.w3.org/2000/svg">
<g clip-path="url(#clip0_128_88)">
<path d="M126 136.521C124.916 136.954 123.819 137.38 122.742 137.827C119.49 139.174 116.176 140.274 112.664 140.694C107.046 141.374 101.996 139.834 97.7432 136.246C93.8398 132.945 90.3 129.219 86.5544 125.726C84.2631 123.595 81.9512 121.478 79.5296 119.498C77.5127 117.854 75.0911 116.981 72.5254 116.596C72.1824 116.541 71.5924 116.754 71.4346 117.029C69.6716 120.109 67.9703 123.224 66.2415 126.332C64.9998 128.559 63.9571 130.848 64.3413 133.502C64.4853 134.52 64.7323 135.524 64.9518 136.527C65.3566 138.384 64.9244 139.484 63.2162 140.144C57.9065 142.179 52.5007 142.715 47.0126 140.879C44.344 139.986 42.5329 138.191 42.1213 135.352C41.401 130.381 39.2606 126.057 36.4754 121.973C32.9013 116.734 30.8501 110.904 30.02 104.647C29.3889 99.9102 29.5604 95.1869 30.9256 90.5668C31.4675 88.7174 32.3936 87.9405 33.9577 88.0161C34.3899 88.0368 34.9182 88.1468 35.2269 88.4149C36.2284 89.3087 37.2918 89.2193 38.3002 88.6211C40.5983 87.2667 42.8142 85.7611 45.126 84.4342C47.3624 83.1485 49.6743 81.9866 51.9724 80.8247C52.3154 80.6459 52.8711 80.5703 53.1935 80.7284C53.8315 81.0378 54.5656 81.4297 54.8949 82.0003C55.2996 82.7016 54.8125 83.4441 54.1402 83.8429C52.6379 84.7367 51.1012 85.5892 49.5508 86.4073C46.4432 88.0367 43.2532 89.5149 40.221 91.2612C36.9145 93.1656 35.0759 96.0257 35.6934 100.02C35.8168 100.838 36.3108 101.595 36.6401 102.378C37.23 101.945 37.8955 101.581 38.4031 101.058C40.1662 99.2639 41.7165 97.222 44.296 96.4795C48.0827 95.3932 51.6843 96.1563 55.2036 97.5932C55.4711 97.7032 55.8004 98.2258 55.7318 98.4389C55.6495 98.707 55.1898 99.0233 54.8811 99.0302C53.3582 99.0577 51.8284 98.9614 50.3054 98.9614C48.1788 98.9614 46.011 98.7689 43.9324 99.0989C40.4268 99.6489 37.3055 103.747 37.3123 107.335C37.3123 109.494 38.6432 110.464 40.6395 109.584C44.9134 107.707 49.345 106.82 54.003 107.122C54.7096 107.17 55.478 107.294 56.0817 107.631C56.5138 107.872 56.9392 108.525 56.946 108.999C56.946 109.288 56.1503 109.845 55.7112 109.838C54.0373 109.824 52.3703 109.652 50.7033 109.501C48.3366 109.281 45.9973 109.219 43.658 109.845C38.8284 111.137 38.5129 114.458 41.2501 118.191C44.0147 116.307 47.04 116.933 50.0516 117.449C51.3276 117.669 52.6036 117.889 53.8727 118.129C56.7334 118.673 59.45 118.013 62.2078 117.304C64.8901 116.617 67.641 116.204 70.3439 115.613C70.68 115.537 71.1191 115.159 71.2082 114.836C72.1549 111.392 71.0848 108.594 68.1143 106.579C66.6394 105.582 66.6531 105.032 68.1623 104.125C71.1259 102.344 71.3935 101.815 70.1175 98.5901C69.0336 95.8332 68.8141 92.9525 68.5054 90.0718C68.327 88.4493 67.5244 87.3148 65.9945 86.8473C61.8236 85.5617 59.3471 82.571 57.6458 78.7484C56.946 77.1808 56.1503 75.6477 55.5123 74.0595C54.298 71.055 52.5281 70.3125 49.1529 71.1926C46.107 71.9901 43.754 73.977 41.4421 75.9708C38.8559 78.2052 36.7498 80.7766 35.906 84.2073C35.81 84.5992 35.3366 84.9017 35.0348 85.2454C34.7878 84.8604 34.3968 84.5029 34.3213 84.0835C33.6696 80.3503 33.2306 76.5896 33.6765 72.7945C33.7519 72.1688 33.9852 71.5226 34.3076 70.9794C35.1171 69.6113 36.2422 69.3844 37.5936 70.23C37.8406 70.3882 38.0875 70.5532 38.6158 70.9038C37.7651 68.6006 37.0242 66.5724 36.2559 64.558C35.9129 63.6505 35.1102 63.6642 34.335 63.6849C29.3134 63.8155 24.4839 62.8736 19.7984 61.0998C11.3399 57.8891 5.35786 52.1483 2.16104 43.6093C0.13044 38.1779 -0.445811 32.5953 0.343104 26.827C1.12516 21.0931 3.05972 15.8473 6.68186 11.3441C11.2644 5.65144 17.3494 2.2826 24.4222 0.776937C32.7572 -1.00374 40.715 0.336925 48.2405 4.25578C55.9719 8.28464 60.5819 14.7336 62.5645 23.1557C64.3413 30.6702 63.8816 38.0129 60.7191 45.115C58.0917 51.0208 53.5297 55.0977 48.1308 58.3566C47.0263 59.0235 45.8944 59.6422 44.7556 60.2954C45.3936 61.6773 46.0247 62.9767 46.5941 64.2967C46.8342 64.8536 47.0674 65.4586 47.0812 66.043C47.0949 66.4693 46.8548 67.1087 46.5324 67.2806C46.2374 67.4456 45.5651 67.2393 45.2495 66.9712C44.8379 66.6137 44.5498 66.0705 44.3303 65.5549C43.8363 64.3999 43.4865 63.1761 42.9582 62.0417C42.5398 61.1479 42.4986 60.4466 43.507 59.9104C43.3081 59.5322 43.1366 59.2022 42.9582 58.8722C42.0527 57.1947 42.183 56.8028 43.6717 55.6203C46.2168 53.6058 48.8374 51.6739 51.1904 49.4601C55.327 45.5619 57.4605 40.6392 57.9956 34.9603C58.4964 29.6183 57.6046 24.5307 55.4094 19.6768C52.7133 13.7023 47.925 10.0516 41.9567 7.7965C38.2179 6.38021 34.3419 5.58269 30.3425 5.60331C18.1589 5.65144 8.79478 13.0698 6.16735 25.012C3.97897 34.9603 6.29084 43.7468 13.7204 50.9245C16.9515 54.0458 20.9166 55.7784 25.2934 56.5209C28.0306 56.9815 30.8089 57.1741 33.5667 57.5109C33.992 57.5659 34.4036 57.7309 34.8221 57.8478C34.8084 57.9716 34.7878 58.1022 34.7741 58.226C34.5065 58.2741 34.2321 58.391 33.9715 58.3703C29.2997 57.9991 24.6005 57.6828 20.1895 55.909C13.2401 53.1108 8.66444 47.9476 6.25654 40.983C2.88821 31.2477 4.41802 22.1175 10.6127 13.9154C14.6396 8.58714 20.2306 5.82332 26.8163 5.0533C33.6147 4.25578 40.0084 5.62394 46.0453 8.77965C52.7339 12.2722 56.5207 17.9649 58.1191 25.1907C59.4431 31.1721 59.3059 37.0916 56.8157 42.8256C55.1418 46.6757 52.4526 49.7145 49.2833 52.3614C47.7329 53.654 46.0864 54.8434 44.4675 56.0534C42.9445 57.1947 42.9308 57.1809 43.8912 58.8791C44.001 59.0785 44.1245 59.2641 44.2822 59.5185C52.5418 55.4003 59.0727 49.7626 61.5629 40.4674C63.6621 32.6228 63.1064 24.9501 59.7861 17.5249C57.4331 12.2585 53.7012 8.25026 48.6796 5.41081C43.2738 2.35823 37.4701 0.797562 31.3029 0.831938C23.743 0.873189 16.9172 3.21075 11.0312 8.0715C4.95311 13.0973 2.00326 19.7662 1.07028 27.432C-0.0067631 36.3285 2.01698 44.4412 7.57368 51.5433C11.0723 56.019 15.7578 58.7966 21.0333 60.6804C25.314 62.2067 29.7319 62.9217 34.2733 62.9423C36.3656 62.9492 36.6126 63.0798 37.3535 65.108C38.2316 67.5075 39.0342 69.9344 39.83 72.3613C39.9261 72.657 39.7957 73.0282 39.7683 73.3651C39.4801 73.1657 39.1646 73.0007 38.9176 72.7601C38.3208 72.1757 37.8269 71.4744 37.1683 70.9657C36.2353 70.2438 35.4738 70.4432 34.9182 71.4882C34.6712 71.9488 34.5203 72.4851 34.4585 73.0076C34.0469 76.5964 34.5271 80.1303 34.9662 83.5335C35.9335 81.8628 36.7018 79.9859 37.9298 78.494C40.8453 74.9533 44.2617 71.9626 48.7207 70.4982C49.7772 70.1544 50.9709 70.12 52.1028 70.1406C53.5228 70.1681 54.7096 70.8419 55.3682 72.1413C56.4384 74.252 57.3371 76.4452 58.4415 78.5352C59.2373 80.0478 60.0743 81.6085 61.2199 82.8391C62.2421 83.946 63.7033 84.6679 64.993 85.5135C65.3703 85.7611 65.823 85.8986 66.2484 86.0567C68.2996 86.7923 69.2462 88.3393 69.356 90.4293C69.5138 93.4269 70.0969 96.3145 71.1534 99.1333C72.1344 101.773 71.6542 102.88 69.2668 104.407C68.8209 104.688 68.3819 104.977 67.7919 105.348C71.7639 107.762 73.1771 111.144 71.8462 115.647C72.4156 115.744 72.889 115.819 73.3555 115.902C77.7665 116.699 81.1143 119.339 84.2288 122.323C88.4889 126.387 92.605 130.601 96.9406 134.582C101.262 138.556 106.414 140.529 112.355 139.917C116.416 139.497 120.196 138.074 123.894 136.417C124.58 136.108 125.294 135.854 125.993 135.579V136.5L126.007 136.521H126ZM37.5936 103.148C36.0364 103.279 35.6248 103.045 35.2063 101.588C34.2184 98.1708 34.7192 95.0357 37.3535 92.5125C38.4717 91.44 39.7683 90.4912 41.1334 89.7624C44.2205 88.0986 47.3967 86.6067 50.525 85.0254C51.4785 84.5442 52.4252 84.0423 53.3033 83.4372C53.6943 83.1691 53.9001 82.6329 54.1951 82.2135C53.6738 82.0003 53.1044 81.5259 52.6379 81.6153C51.5746 81.8147 50.4838 82.1447 49.544 82.6672C47.7466 83.6641 46.0453 84.8467 44.296 85.9329C42.4506 87.0811 40.6326 88.2774 38.7324 89.3293C37.6553 89.9274 36.4548 90.2162 35.2612 89.4324C33.4775 88.2636 32.2015 88.6693 31.7419 90.7937C31.1588 93.4681 30.514 96.2045 30.5002 98.9202C30.4591 106.964 32.4897 114.479 36.9831 121.244C39.7065 125.335 42.1076 129.556 42.7593 134.561C43.1572 137.634 44.9957 139.456 47.8907 140.35C50.6416 141.203 53.4679 141.368 56.2737 141.01C58.4484 140.735 60.5956 140.123 62.6948 139.47C64.2383 138.989 64.6225 138.308 64.1217 136.768C62.688 132.375 63.8405 128.518 66.1866 124.798C67.5106 122.701 68.6906 120.515 69.9117 118.349C70.2135 117.806 70.4193 117.215 70.6663 116.637C70.5908 116.507 70.5154 116.376 70.4399 116.246C68.3681 116.672 66.2964 117.071 64.2315 117.531C62.0431 118.013 59.889 118.7 57.6732 119.016C54.5999 119.456 51.6226 118.494 48.6247 118.006C46.2991 117.621 44.001 117.359 41.8812 118.783C41.1609 119.264 40.6326 118.872 40.2622 118.274C38.7736 115.895 37.8612 113.461 39.8094 110.849C36.3862 110.402 35.762 108.222 37.6005 103.148H37.5936ZM42.4026 98.377C44.1588 98.2464 46.1825 97.9783 48.1994 97.9851C50.2025 97.9851 52.2125 98.267 54.2157 98.4251C50.4015 96.3832 44.4812 96.0807 42.4026 98.3839V98.377ZM56.1708 108.765C53.3925 107.287 50.525 107.927 47.6574 108.387C50.5044 108.332 53.2964 109.467 56.1708 108.765ZM46.3746 66.7237C45.9424 64.3311 44.9545 62.5229 43.8432 60.6391C43.3973 61.6773 45.0437 65.7818 46.3746 66.7237Z" fill="#A58D69"/>
</g>
<defs>
<clipPath id="clip0_128_88">
<rect width="126" height="142" fill="white"/>
</clipPath>
</defs>
</svg>
