<svg width="171" height="140" viewBox="0 0 171 140" fill="none" xmlns="http://www.w3.org/2000/svg">
<g clip-path="url(#clip0_128_86)">
<path d="M11.2757 115.798C10.3687 116.285 10.1655 116.947 10.6517 117.79C11.4063 119.098 12.2262 120.377 12.8792 121.736C14.2216 124.512 13.6048 126.446 10.9419 128.037C10.4558 128.328 9.94785 128.582 9.41817 128.786C6.42148 129.956 3.70777 128.844 2.37268 125.915C2.24208 125.632 2.12598 125.348 1.96635 124.985C1.50197 125.152 1.07387 125.348 0.631264 125.45C0.44261 125.494 0.210421 125.341 0 125.283C0.101583 125.116 0.181398 124.81 0.304748 124.796C1.71239 124.571 1.75593 123.553 1.93007 122.419C2.30012 119.905 4.35355 118.509 6.61739 119.2C7.20512 119.374 7.95248 119.926 8.08308 120.442C8.20643 120.944 7.8001 121.852 7.34298 122.179C6.2038 122.993 4.90499 123.582 3.65698 124.258C3.38851 124.403 3.09827 124.512 2.8298 124.636C3.51186 127.638 6.05868 129.157 8.83044 128.132C9.89706 127.739 10.8911 127.063 11.7981 126.366C12.7922 125.603 13.0897 124.44 12.6035 123.291C11.965 121.794 11.2104 120.333 10.3905 118.923C8.97556 116.511 8.99007 116.583 11.0653 114.752C12.0883 113.843 12.8575 112.659 13.808 111.663C17.3852 107.898 20.9986 104.155 24.5903 100.398C27.6378 97.2072 30.6635 94.0021 33.7255 90.8261C37.1793 87.2503 39.4214 83.0204 40.7202 78.2455C41.2426 76.334 41.8303 74.4371 42.4616 72.5548C43.5645 69.2406 45.734 66.8641 48.8903 65.3814C51.2122 64.284 53.6067 63.4482 56.1535 63.063C58.0835 62.7723 58.8599 63.3174 59.1574 65.2361C59.4186 66.9513 59.571 68.681 59.8105 70.3962C59.8903 70.9631 60.1079 71.5155 60.3329 72.344C60.8263 71.7553 61.1673 71.4064 61.443 71.014C62.1469 70.0038 62.8652 69.0081 63.4819 67.947C63.6851 67.5908 63.8012 66.9803 63.6343 66.6533C63.1337 65.6867 62.5024 64.7782 61.8566 63.8988C61.5664 63.5063 61.073 63.2592 60.7392 62.8886C60.5215 62.6415 60.42 62.2853 60.2676 61.9801C60.5868 62.0019 60.9351 61.9437 61.2181 62.06C62.1178 62.4307 63.0103 62.8377 63.881 63.281C65.129 63.9133 66.2682 63.8552 67.3929 62.9612C68.8223 61.8275 70.3315 60.7954 71.7609 59.6616C72.7695 58.8622 73.2847 57.7866 73.3137 56.4565C73.3935 53.2006 73.8942 50.0173 74.8447 46.8921C74.968 46.4924 74.8012 45.9327 74.6053 45.5257C74.2134 44.7408 73.6838 44.0286 73.2557 43.2582C72.1237 41.2159 70.4259 39.8132 68.3216 38.9048C66.007 37.9018 63.852 38.5268 61.7478 39.7406C62.4226 39.8568 63.0901 39.9731 63.7649 40.0821C67.4799 40.6854 70.3678 42.5895 72.4865 45.6784C72.8783 46.2525 73.5096 47.0011 72.8493 47.6189C72.1673 48.2584 71.4997 47.5026 70.9555 47.0883C69.4536 45.94 68.0459 44.6754 66.5077 43.5852C65.6007 42.9384 64.5558 42.4224 63.4965 42.0663C62.2339 41.6447 61.5011 42.1753 61.2834 43.498C61.1818 44.1158 61.1383 44.7626 61.2108 45.3804C61.5156 47.8732 61.4358 50.3588 60.9641 52.8154C60.819 53.5785 60.9932 53.9346 61.8058 54.1308C63.1627 54.4579 63.6343 55.1629 63.5255 56.5438C63.4602 57.3868 63.3296 58.2372 63.1119 59.0584C62.7564 60.3812 61.8494 60.8681 60.5143 60.5338C59.0051 60.1559 58.0255 59.102 57.2346 57.852C55.8923 55.7516 55.3844 53.3823 55.1304 50.9548C54.9998 49.7047 54.978 48.4401 55.0216 47.1828C55.1231 44.2175 56.5816 42.0081 58.918 40.2856C59.3025 40.0022 59.513 39.4862 59.8395 39.101C60.1152 38.7667 60.3837 38.3815 60.7465 38.1707C63.3296 36.6227 66.1376 35.8377 69.1416 36.2084C73.2629 36.7171 76.2886 40.7581 76.0492 45.1333C76.0202 45.6348 76.2233 46.2307 76.5136 46.645C77.1231 47.5171 77.8632 48.3021 78.5597 49.116C79.6336 50.3661 79.7642 51.7325 78.9733 53.1424C78.4073 54.1599 77.7326 55.112 77.1231 56.1004C76.7458 56.7182 76.3249 57.3214 76.0347 57.9755C75.563 59.0293 75.9258 59.9233 77.0505 60.1777C77.9865 60.3884 78.9951 60.4829 79.9383 60.3666C89.1824 59.2474 97.2437 55.6062 103.825 48.9198C105.61 47.1029 107.228 45.126 108.926 43.2218C109.513 42.5677 110.058 41.8555 110.725 41.2959C111.161 40.9325 111.821 40.5473 112.314 40.62C113.33 40.7799 113.78 40.2493 114.295 39.5879C115.819 37.6256 117.401 35.6996 118.917 33.7301C120.31 31.9204 121.007 29.8781 120.905 27.5597C120.862 26.6221 120.941 25.6701 121.014 24.7252C121.043 24.3255 121.101 23.8604 121.319 23.5551C121.624 23.1336 122.066 22.5885 122.494 22.5449C122.821 22.5086 123.408 23.0973 123.561 23.5188C123.924 24.5072 124.098 25.5683 124.395 26.8111C124.976 26.2515 125.549 25.75 126.05 25.1831C126.543 24.6162 126.92 23.9403 127.421 23.3807C127.878 22.8647 128.364 22.3414 128.938 21.9853C130.2 21.1931 131.564 21.1131 132.877 21.8908C134.154 22.6466 134.554 23.9112 134.249 25.2485C133.973 26.4477 133.552 27.7196 132.834 28.6935C131.796 30.0962 130.563 31.4189 129.191 32.4873C125.788 35.14 122.98 38.2725 120.789 41.9863C120.151 43.0692 119.454 44.1231 118.743 45.1696C118.445 45.613 118.482 45.9109 118.816 46.3252C119.933 47.7206 119.846 48.3529 118.17 48.8108C116.82 49.1815 116.283 50.0245 115.79 51.151C113.091 57.3141 108.527 61.842 103.012 65.4759C99.5946 67.7217 96.032 69.7567 92.5854 71.9588C91.156 72.8745 89.8572 73.9865 88.5076 75.0186C87.3031 75.9416 86.8315 75.7962 86.3018 74.3863C85.4964 72.235 84.7272 70.0692 83.8203 67.9615C83.0656 66.21 81.8974 64.7128 80.41 63.4918C80.156 63.2883 79.8803 63.1066 79.4449 63.0703C79.9166 63.8697 80.3882 64.6692 80.8526 65.4686C81.092 65.8756 81.346 66.2754 81.5347 66.7114C81.9482 67.6635 81.8249 68.4484 80.9542 68.9354C79.0314 70.0038 77.0432 70.9631 75.0624 71.9225C74.8374 72.0315 74.344 71.9733 74.2207 71.8134C74.0465 71.5881 73.9885 71.1448 74.0828 70.8614C74.4093 69.9093 74.8665 69.0008 75.1857 68.0487C75.5268 67.0385 75.846 66.0065 76.0202 64.9599C76.1653 64.0514 75.9041 63.2083 74.7867 62.7795C74.8229 63.1066 74.8374 63.3392 74.881 63.5645C75.193 65.1198 75.0479 66.6388 74.5907 68.1432C74.0611 69.8729 73.3064 70.3163 71.5578 69.9456C70.3533 69.6912 69.1633 69.4005 67.9661 69.1462C67.6323 69.0735 67.2913 69.0589 66.8342 69.2116C67.1752 69.495 67.4727 69.8657 67.8645 70.0546C71.4997 71.8716 73.1033 75.0331 73.8506 78.8342C74.7939 83.6164 75.0987 88.4567 75.3018 93.3117C75.4905 97.7814 75.5703 102.258 75.7082 106.735C75.7154 107.048 75.7372 107.36 75.7589 107.746C79.4087 108.102 83.0221 108.458 86.7807 108.828C86.7081 108.429 86.6356 108.044 86.563 107.666C84.9812 99.4675 84.6257 91.2113 85.344 82.9041C85.4238 82.0029 85.6488 81.1017 85.9317 80.2368C86.0406 79.8953 86.4832 79.6554 86.7662 79.3647C86.9838 79.7136 87.3394 80.0406 87.3902 80.4185C87.528 81.3852 87.5716 82.3663 87.5788 83.3402C87.6586 89.794 88.2101 96.1824 90.0386 102.411C90.5537 104.163 91.1342 105.9 91.5551 107.68C92.034 109.715 91.4607 110.304 89.4001 110.115C88.9647 110.079 88.5293 110.013 87.811 109.933C89.1388 114.461 90.4304 118.873 91.6639 123.11C93.4779 123.11 95.1758 123.008 96.8519 123.124C104.891 123.691 112.931 124.229 120.956 124.941C130.425 125.777 139.879 126.765 149.341 127.696C154.602 128.212 159.862 128.757 165.13 129.28C165.819 129.346 166.509 129.389 167.205 129.389C168.504 129.389 169.084 129.018 169.382 127.747C169.679 126.467 169.883 125.137 169.941 123.829C170.071 120.682 170.144 117.528 170.144 114.374C170.173 80.0043 170.195 45.642 170.202 11.2725C170.202 8.75058 170.086 6.22864 170.006 3.71398C169.991 3.33605 169.948 2.95813 169.89 2.58747C169.629 0.857726 169.317 0.625156 167.597 0.821387C160.805 1.58451 154.028 2.42031 147.23 3.07441C138.74 3.88841 130.236 4.60065 121.732 5.26929C108.708 6.29405 95.6764 7.25341 82.6521 8.22729C72.7623 8.96134 62.8724 9.65179 52.9826 10.4149C50.7623 10.5893 48.5275 10.8728 46.3435 11.3089C43.0058 11.9775 42.048 13.1694 42.077 16.5926C42.1206 22.4577 42.2439 28.3228 42.3745 34.1807C42.5632 42.5314 42.7808 50.8821 42.9913 59.2401C42.9913 59.4 43.0348 59.5744 42.9913 59.7125C42.9114 59.9233 42.7663 60.105 42.6502 60.2939C42.5124 60.0905 42.2657 59.9015 42.2439 59.6907C42.1713 58.8404 42.1641 57.9901 42.1423 57.1397C41.8521 44.1885 41.5618 31.2299 41.2934 18.2787C41.2644 17.0214 41.3514 15.7568 41.4965 14.5067C41.6925 12.8569 42.6357 11.6214 44.203 11.178C46.2492 10.5966 48.3534 10.0661 50.4648 9.88436C58.8672 9.15758 67.284 8.57615 75.7009 7.94385C88.0722 7.02084 100.444 6.11963 112.808 5.16754C121.725 4.48437 130.643 3.83026 139.538 2.99446C148.717 2.12959 157.881 1.08303 167.053 0.0873371C169.875 -0.217911 170.601 0.203622 170.71 3.04534C170.913 8.17642 170.993 13.3148 171 18.4531C171.015 31.3826 170.956 44.3047 170.942 57.2342C170.92 78.042 170.927 98.857 170.869 119.665C170.869 122.143 170.666 124.643 170.34 127.107C170.006 129.622 169.005 130.385 166.487 130.167C161.096 129.709 155.705 129.157 150.321 128.626C142.332 127.841 134.35 126.991 126.354 126.264C117.517 125.457 108.664 124.745 99.8195 124.04C98.0056 123.895 96.1698 123.938 94.3413 123.946C93.594 123.946 92.8466 124.076 92.0267 124.156C92.346 125.661 92.774 127.056 92.9192 128.473C93.2747 131.889 93.5069 135.312 93.7754 138.736C93.7971 138.983 93.7754 139.244 93.6956 139.484C93.5069 140.08 93.0643 140.167 92.6434 139.709C92.4548 139.506 92.3024 139.252 92.1791 138.997C90.5175 135.61 89.2259 132.107 88.66 128.364C88.5511 127.659 88.5584 126.911 88.6527 126.206C88.8268 124.89 89.6903 124.098 90.9891 123.64C90.6336 122.412 90.2925 121.242 89.9515 120.072C89.0373 116.896 88.1303 113.712 87.187 110.544C87.0999 110.238 86.8097 109.802 86.5702 109.773C83.0149 109.337 79.4595 108.959 75.8025 108.56V110.42C75.788 112.266 75.3526 112.768 73.5241 112.731C71.5433 112.688 69.5624 112.557 67.5815 112.397C64.222 112.121 60.8771 111.801 57.5176 111.488C57.2346 111.459 56.9589 111.387 56.6904 111.314C53.8534 110.602 52.6706 109.25 52.8883 106.328C53.0625 103.988 53.6357 101.677 54.0855 99.3585C54.6007 96.6985 55.203 94.0602 55.7109 91.4002C55.8197 90.8261 55.7762 90.201 55.7109 89.6123C55.544 88.2169 54.8402 87.9189 53.7518 88.8347C52.8883 89.5615 52.0974 90.3827 51.3573 91.2403C48.767 94.2492 46.2637 97.3307 43.637 100.303C38.6377 105.965 33.0507 110.914 26.2664 114.367C25.2868 114.868 24.2783 115.34 23.2407 115.675C22.711 115.849 21.8113 115.929 21.5355 115.624C20.9768 115.006 21.6807 114.396 22.1015 113.945C23.1899 112.768 24.3218 111.619 25.49 110.529C28.7842 107.455 32.1364 104.446 35.4016 101.35C40.176 96.8147 44.0651 91.5383 47.8817 86.2037C49.0137 84.6193 50.2617 83.1076 51.604 81.6977C52.3224 80.9491 53.2874 80.3531 54.2452 79.9316C56.3494 79.0159 58.2867 79.7935 59.1066 81.9375C59.5928 83.2094 59.854 84.6121 59.9846 85.9712C60.3401 89.765 59.7379 93.5152 59.3606 97.2799C59.201 98.9079 59.1139 100.558 59.2082 102.186C59.3606 104.788 60.4925 106.038 63.0538 106.641C64.1495 106.902 65.2814 107.077 66.4061 107.171C69.1923 107.411 71.9859 107.586 74.8229 107.796C74.8592 107.549 74.9173 107.375 74.91 107.2C74.5545 99.453 74.2425 91.7055 73.7853 83.9725C73.6547 81.8212 73.1396 79.6772 72.6752 77.555C72.0439 74.6697 70.4912 72.4312 67.8282 71.0213C67.255 70.716 66.7326 70.2727 66.29 69.793C66.0796 69.5677 65.9417 69.0517 66.0578 68.79C66.1739 68.5357 66.6673 68.2813 66.9648 68.3176C68.2418 68.4848 69.5116 68.7101 70.7669 69.0008C73.3064 69.5895 73.6765 69.4223 74.0683 66.8205C74.2352 65.723 74.0248 64.5747 74.0393 63.4482C74.0393 63.0121 74.0756 62.2999 74.2933 62.2054C74.6778 62.0528 75.2801 62.1618 75.6719 62.3798C76.5498 62.8668 76.9779 63.768 76.7965 64.7055C76.499 66.239 76.0129 67.7362 75.5703 69.2334C75.3961 69.8293 75.1059 70.3889 74.8737 70.9558C74.9971 71.0212 75.0624 71.0867 75.0914 71.0721C76.7312 70.2727 78.3856 69.5023 79.9964 68.6519C81.092 68.0778 81.1791 67.6926 80.5769 66.6097C80.0399 65.6431 79.4014 64.7346 78.9298 63.7462C78.7048 63.2665 78.7629 62.6487 78.6903 62.0964C79.2563 62.2345 79.9238 62.2272 80.3737 62.5324C81.941 63.5863 83.2035 64.989 84.0017 66.6896C85.032 68.8772 85.8809 71.1521 86.7952 73.3906C86.9838 73.8484 87.1435 74.3063 87.3466 74.8441C87.6514 74.6479 87.8763 74.5461 88.0577 74.3863C91.0254 71.8062 94.4066 69.8584 97.7806 67.8816C102.025 65.3887 106.11 62.6705 109.55 59.0875C112.227 56.2967 114.201 53.0697 115.732 49.4068C113.896 49.0216 113.228 47.4517 112.321 46.1072C111.444 44.8135 111.364 43.5489 112.292 42.248C112.438 42.0445 112.539 41.8192 112.655 41.6011C112.67 41.5793 112.655 41.543 112.633 41.2813C112.111 41.5212 111.574 41.6447 111.219 41.9645C110.566 42.5532 109.978 43.2218 109.441 43.9123C105.639 48.8253 101.176 53.0189 95.8143 56.1586C90.8512 59.0584 85.402 60.5847 79.7207 61.246C78.7484 61.355 77.6963 61.2315 76.7457 60.9771C75.2293 60.5701 74.6415 59.211 75.2728 57.772C75.6138 57.0016 76.1145 56.2966 76.5571 55.5771C77.1593 54.5814 77.8051 53.6076 78.3711 52.5901C78.9008 51.638 78.7629 50.7004 78.0736 49.8646C77.3335 48.9707 76.5789 48.0913 75.6864 47.0374C75.3236 48.2875 75.0116 49.3777 74.6415 50.6423C75.222 50.3952 75.5993 50.1917 75.9984 50.0754C76.695 49.8719 77.5221 49.821 77.8559 50.5333C78.1099 51.0784 78.1534 51.9142 77.9285 52.4665C77.3262 53.9273 75.8533 54.3416 74.1409 53.5567C74.1409 54.3561 74.1046 55.0684 74.1409 55.7734C74.2715 57.9464 73.3935 59.6253 71.6666 60.8899C70.3751 61.842 69.0472 62.7505 67.7775 63.7316C66.5222 64.6982 65.2234 64.8581 63.8012 64.1677C63.6343 64.0878 63.4529 64.0369 63.2715 63.9715C63.2498 63.9642 63.2135 63.9787 63.1046 64.0005C63.4819 64.6546 63.8738 65.2651 64.2075 65.912C64.73 66.9149 64.7227 67.838 63.9463 68.7973C63.1337 69.793 62.5459 70.9704 61.7405 71.9733C61.3922 72.4094 60.6884 72.94 60.2676 72.8527C59.8395 72.7655 59.3533 72.0097 59.2518 71.4719C58.9107 69.713 58.7076 67.9252 58.4899 66.1445C58.2069 63.8479 57.9094 63.579 55.6746 64.0005C53.0552 64.4875 50.5809 65.396 48.2445 66.6824C45.9081 67.976 44.2973 69.902 43.3976 72.3949C42.7881 74.081 42.1931 75.7889 41.7723 77.5259C40.3066 83.66 37.114 88.7257 32.7096 93.1808C26.5639 99.4166 20.5632 105.798 14.5046 112.121C13.9459 112.702 13.4379 113.342 13.0897 113.741C14.8674 115.922 16.616 117.935 18.2051 120.064C19.0613 121.22 18.6114 122.15 17.24 122.565C14.5263 123.393 14.0184 123.161 12.9228 120.537C12.6035 119.781 12.2988 119.018 12.0303 118.248C11.7618 117.477 11.5442 116.692 11.2829 115.856V115.798H11.2757ZM22.3047 114.875C22.3409 114.933 22.3845 114.984 22.4208 115.042C22.74 114.948 23.0738 114.89 23.3713 114.752C24.7644 114.09 26.1721 113.458 27.5144 112.709C33.9141 109.163 39.1166 104.199 43.8837 98.7407C46.641 95.5865 49.3039 92.3596 52.0611 89.2053C52.5908 88.6021 53.2656 88.0861 53.9694 87.6936C55.0143 87.1122 55.9648 87.5047 56.2551 88.653C56.4727 89.5179 56.5671 90.4699 56.4655 91.3566C56.2696 93.0137 55.9213 94.6489 55.5803 96.2842C54.9563 99.2713 54.1726 102.237 53.6792 105.245C53.1278 108.625 54.2597 110.042 57.6047 110.653C57.6337 110.653 57.67 110.653 57.699 110.667C62.9378 111.074 68.1693 111.518 73.4153 111.881C74.8229 111.975 74.9535 111.75 74.968 110.311V108.552C73.1831 108.429 71.5215 108.363 69.8744 108.189C67.4654 107.942 65.042 107.753 62.6765 107.302C60.1587 106.815 58.577 105.195 58.4391 102.549C58.3448 100.638 58.4826 98.7116 58.5842 96.8002C58.7729 93.2826 59.1139 89.765 59.1719 86.2473C59.1937 84.8737 58.7946 83.4347 58.3157 82.1192C57.7208 80.4839 56.3131 79.9171 54.7096 80.5712C53.7953 80.9418 52.8593 81.4724 52.1918 82.1701C50.8494 83.58 49.5796 85.0772 48.4695 86.6689C43.9345 93.1372 39.015 99.2495 33.1377 104.57C29.8218 107.571 26.5784 110.645 23.3132 113.698C22.9359 114.047 22.6384 114.483 22.3047 114.883V114.875ZM117.901 44.9734C118.308 44.3411 118.707 43.7742 119.055 43.1782C121.747 38.5559 125.041 34.4787 129.38 31.2808C130.447 30.4959 131.361 29.413 132.116 28.3083C132.74 27.3998 133.153 26.3024 133.443 25.2267C133.705 24.2528 133.472 23.2426 132.536 22.6321C131.557 21.9925 130.454 21.9635 129.496 22.5885C128.778 23.0609 128.197 23.7586 127.61 24.3982C126.826 25.2558 126.151 26.2151 125.31 27.0073C124.961 27.3344 124.279 27.5016 123.8 27.4216C123.583 27.3853 123.401 26.5931 123.35 26.1207C123.249 25.1177 123.147 24.1293 122.298 23.0754C122.073 23.8168 121.812 24.3546 121.754 24.9142C121.653 25.9172 121.631 26.9274 121.645 27.9376C121.682 29.9944 121.137 31.8768 119.955 33.5411C118.859 35.0819 117.691 36.5645 116.53 38.0544C115.746 39.0647 114.912 40.0385 114.179 40.9398C115.456 42.3279 116.646 43.6216 117.887 44.9734H117.901ZM71.9423 46.8776L72.1382 46.7031C71.8988 46.3179 71.7029 45.9109 71.4272 45.5548C69.4173 43.0038 66.8632 41.354 63.6198 40.8598C62.7201 40.7217 61.8276 40.5182 60.9206 40.4237C60.5578 40.3874 60.1079 40.4528 59.8032 40.6418C57.1113 42.3642 55.6093 44.8135 55.7472 48.0477C55.8342 49.9882 56.0011 51.9578 56.4582 53.8401C56.8138 55.301 57.5176 56.74 58.352 58.0046C58.8599 58.775 59.8395 59.3273 60.7247 59.7271C61.5519 60.105 62.1106 59.7053 62.35 58.8113C62.5242 58.1427 62.6185 57.4522 62.6911 56.7618C62.8289 55.4681 62.5967 55.1556 61.3487 54.7995C60.0572 54.4288 59.9411 54.3053 60.1587 52.9244C60.5578 50.4243 60.7029 47.9241 60.42 45.3949C60.3256 44.5373 60.4272 43.6216 60.6304 42.7858C60.9206 41.5939 61.8421 40.9761 63.0466 41.1941C63.9826 41.3685 64.9622 41.6665 65.7676 42.168C67.1462 43.0329 68.4087 44.0867 69.7075 45.0751C70.4621 45.6566 71.195 46.2671 71.9423 46.863V46.8776ZM86.6646 81.0363H86.4034C86.2873 81.7776 86.1131 82.5044 86.0551 83.253C85.4166 91.2403 85.7431 99.1913 87.2088 107.077C87.6151 109.272 87.6949 109.301 89.9152 109.366C90.7569 109.388 91.0109 109.025 90.8295 108.283C90.561 107.179 90.3143 106.074 89.9588 104.998C88.1883 99.6347 87.2088 94.1329 86.9403 88.5004C86.8242 86.0148 86.7444 83.5292 86.6501 81.0508L86.6646 81.0363ZM92.8321 138.336C92.8176 133.634 92.6072 128.968 91.156 124.447C89.8354 124.883 89.284 125.581 89.3493 127.027C89.4073 128.183 89.596 129.338 89.8644 130.465C90.5247 133.205 91.5043 135.836 92.8321 138.343V138.336ZM12.6253 114.759C12.5019 114.803 12.3858 114.839 12.2625 114.883C12.2915 115.486 12.1972 116.118 12.3641 116.678C12.7559 117.935 13.2348 119.171 13.7499 120.392C14.5626 122.325 14.6932 122.361 16.7104 121.823C17.9656 121.489 18.1398 121.133 17.3199 120.072C16.0718 118.458 14.7368 116.903 13.4162 115.34C13.213 115.093 12.8865 114.948 12.618 114.759H12.6253ZM113.439 41.652C113.054 42.5314 112.321 43.389 112.445 44.0867C112.757 45.8383 113.736 47.3354 115.275 48.3529C115.71 48.6436 116.145 48.5855 116.385 47.9677C116.602 47.379 116.936 46.8412 117.197 46.2671C117.277 46.0854 117.357 45.7874 117.27 45.6784C116.189 44.2684 115.166 42.793 113.446 41.6593L113.439 41.652ZM74.9971 44.6972C75.2801 41.1214 72.8493 37.7782 69.6277 37.0878C67.0301 36.5282 64.6066 37.2404 62.2412 38.2434C63.3078 38.069 64.3672 37.691 65.4338 37.662C69.098 37.5529 71.6376 39.5371 73.6185 42.386C74.1264 43.1201 74.5399 43.9268 74.9898 44.6972H74.9971ZM2.6992 123.938C4.16489 123.11 5.59431 122.419 6.89311 121.533C7.74931 120.944 7.50987 120.246 6.48678 119.941C4.28099 119.294 2.35817 121.162 2.6992 123.938ZM77.406 51.2455C77.2319 51.1147 76.9562 50.7586 76.6297 50.7077C75.8895 50.5914 74.6488 51.529 74.7794 52.0959C74.8737 52.5028 75.2438 53.0407 75.5993 53.1424C76.2669 53.3386 77.3407 52.2703 77.4133 51.2455H77.406ZM118.852 47.6479C118.496 47.2191 118.257 46.9284 117.93 46.536C117.633 47.1901 117.415 47.677 117.081 48.4256C117.807 48.1131 118.242 47.9169 118.859 47.6479H118.852Z" fill="#A58D69"/>
</g>
<defs>
<clipPath id="clip0_128_86">
<rect width="171" height="140" fill="white"/>
</clipPath>
</defs>
</svg>
